HIERARCHY
ROOT hip
{
	OFFSET 0.000000 0.000000 0.000000
	CHANNELS 6 Xposition Yposition Zposition Xrotation Zrotation Yrotation 
	JOINT abdomen
	{
		OFFSET 0.000000 3.422050 0.000000
		CHANNELS 3 Xrotation Zrotation Yrotation 
		JOINT chest
		{
			OFFSET 0.000000 8.486693 -0.6844110
			CHANNELS 3 Xrotation Zrotation Yrotation 
			JOINT neck
			{
				OFFSET 0.000000 10.26616 -0.2737640
				CHANNELS 3 Xrotation Zrotation Yrotation 
				JOINT head
				{
					OFFSET 0.000000 3.148285 0.000000
					CHANNELS 3 Xrotation Zrotation Yrotation 
					End Site
					{
						OFFSET 0.000000 3.148289 0.000000
					}
				}
			}
			JOINT lCollar
			{
				OFFSET 3.422053 6.707223 -0.8212930
				CHANNELS 3 Yrotation Zrotation Xrotation 
				JOINT lShldr
				{
					OFFSET 3.285171 0.000000 0.000000
					CHANNELS 3 Zrotation Yrotation Xrotation 
					JOINT lForeArm
					{
						OFFSET 10.12928 0.000000 0.000000
						CHANNELS 3 Yrotation Zrotation Xrotation 
						JOINT lHand
						{
							OFFSET 8.486692 0.000000 0.000000
							CHANNELS 3 Zrotation Yrotation Xrotation 
							End Site
							{
								OFFSET 4.106464 0.000000 0.000000
							}
						}
					}
				}
			}
			JOINT rCollar
			{
				OFFSET -3.558935 6.707223 -0.8212930
				CHANNELS 3 Yrotation Zrotation Xrotation 
				JOINT rShldr
				{
					OFFSET -3.148289 0.000000 0.000000
					CHANNELS 3 Zrotation Yrotation Xrotation 
					JOINT rForeArm
					{
						OFFSET -10.26616 0.000000 0.000000
						CHANNELS 3 Yrotation Zrotation Xrotation 
						JOINT rHand
						{
							OFFSET -8.349810 0.000000 0.000000
							CHANNELS 3 Zrotation Yrotation Xrotation 
							End Site
							{
								OFFSET -4.106464 0.000000 0.000000
							}
						}
					}
				}
			}
		}
	}
	JOINT lThigh
	{
		OFFSET 5.338403 -1.642589 1.368821
		CHANNELS 3 Xrotation Zrotation Yrotation 
		JOINT lShin
		{
			OFFSET -2.053232 -20.12167 0.000000
			CHANNELS 3 Xrotation Zrotation Yrotation 
			JOINT lFoot
			{
				OFFSET 0.000000 -19.30038 -1.231939
				CHANNELS 3 Xrotation Yrotation Zrotation 
				End Site
				{
					OFFSET 0.000000 -2.463878 4.653993
				}
			}
		}
	}
	JOINT rThigh
	{
		OFFSET -5.338403 -1.642589 1.368821
		CHANNELS 3 Xrotation Zrotation Yrotation 
		JOINT rShin
		{
			OFFSET 2.053232 -20.12167 0.000000
			CHANNELS 3 Xrotation Zrotation Yrotation 
			JOINT rFoot
			{
				OFFSET 0.000000 -19.30038 -1.231939
				CHANNELS 3 Xrotation Yrotation Zrotation 
				End Site
				{
					OFFSET 0.000000 -2.463878 4.653993
				}
			}
		}
	}
}
MOTION
Frames:	16
Frame Time:	0.03333333
0.000000 39.00000 0.000000 1.000000 0.000000 0.000000 1.000000 0.000000 0.000000 1.000000 0.000000 0.000000 1.000000 0.000000 0.000000 1.000000 0.000000 0.000000 0.000000 0.000000 1.000000 -71.86667 35.13334 0.000000 -121.6667 0.000000 0.000000 3.000000 -48.53333 -84.00000 0.000000 0.000000 1.000000 71.86667 -35.13334 0.000000 121.6667 0.000000 0.000000 -3.000000 48.53333 -84.00000 -11.93333 0.000000 0.000000 28.06667 0.000000 0.000000 -14.06667 0.000000 0.000000 -15.00000 0.000000 0.000000 30.00000 0.000000 0.000000 -16.00000 0.000000 0.000000 
0.000000 39.00000 0.000000 1.000000 0.000000 0.000000 1.000000 0.000000 0.000000 1.000000 0.000000 0.000000 1.000000 0.000000 0.000000 1.000000 0.000000 0.000000 0.000000 0.000000 1.000000 -66.73333 27.26667 0.000000 -114.3333 0.000000 0.000000 6.000000 -45.06667 -78.00000 0.000000 0.000000 1.000000 66.73333 -27.26667 0.000000 114.3333 0.000000 0.000000 -6.000000 45.06667 -78.00000 -8.866667 0.000000 0.000000 26.13333 0.000000 0.000000 -12.13333 0.000000 0.000000 -15.00000 0.000000 0.000000 30.00000 0.000000 0.000000 -16.00000 0.000000 0.000000 
0.000000 39.00000 0.000000 1.000000 0.000000 0.000000 1.000000 0.000000 0.000000 1.000000 0.000000 0.000000 1.000000 0.000000 0.000000 1.000000 0.000000 0.000000 0.000000 0.000000 1.000000 -61.60000 19.40000 0.000000 -107.0000 0.000000 0.000000 9.000000 -41.60000 -72.00000 0.000000 0.000000 1.000000 61.60000 -19.40000 0.000000 107.0000 0.000000 0.000000 -9.000000 41.60000 -72.00000 -5.800000 0.000000 0.000000 24.20000 0.000000 0.000000 -10.20000 0.000000 0.000000 -15.00000 0.000000 0.000000 30.00000 0.000000 0.000000 -16.00000 0.000000 0.000000 
0.000000 39.00000 0.000000 1.000000 0.000000 0.000000 1.000000 0.000000 0.000000 1.000000 0.000000 0.000000 1.000000 0.000000 0.000000 1.000000 0.000000 0.000000 0.000000 0.000000 1.000000 -56.46667 11.53333 0.000000 -99.66666 0.000000 0.000000 12.00000 -38.13334 -66.00000 0.000000 0.000000 1.000000 56.46667 -11.53333 0.000000 99.66666 0.000000 0.000000 -12.00000 38.13334 -66.00000 -2.733333 0.000000 0.000000 22.26667 0.000000 0.000000 -8.266666 0.000000 0.000000 -15.00000 0.000000 0.000000 30.00000 0.000000 0.000000 -16.00000 0.000000 0.000000 
0.000000 39.00000 0.000000 1.000000 0.000000 0.000000 1.000000 0.000000 0.000000 1.000000 0.000000 0.000000 1.000000 0.000000 0.000000 1.000000 0.000000 0.000000 0.000000 0.000000 1.000000 -51.33333 3.666667 0.000000 -92.33334 0.000000 0.000000 15.00000 -34.66667 -60.00000 0.000000 0.000000 1.000000 51.33333 -3.666667 0.000000 92.33334 0.000000 0.000000 -15.00000 34.66667 -60.00000 0.3333333 0.000000 0.000000 20.33333 0.000000 0.000000 -6.333333 0.000000 0.000000 -15.00000 0.000000 0.000000 30.00000 0.000000 0.000000 -16.00000 0.000000 0.000000 
0.000000 39.00000 0.000000 1.000000 0.000000 0.000000 1.000000 0.000000 0.000000 1.000000 0.000000 0.000000 1.000000 0.000000 0.000000 1.000000 0.000000 0.000000 0.000000 0.000000 1.000000 -46.20000 -4.200000 0.000000 -85.00000 0.000000 0.000000 18.00000 -31.20000 -54.00000 0.000000 0.000000 1.000000 46.20000 4.200000 0.000000 85.00000 0.000000 0.000000 -18.00000 31.20000 -54.00000 3.400000 0.000000 0.000000 18.40000 0.000000 0.000000 -4.400000 0.000000 0.000000 -15.00000 0.000000 0.000000 30.00000 0.000000 0.000000 -16.00000 0.000000 0.000000 
0.000000 39.00000 0.000000 1.000000 0.000000 0.000000 1.000000 0.000000 0.000000 1.000000 0.000000 0.000000 1.000000 0.000000 0.000000 1.000000 0.000000 0.000000 0.000000 0.000000 1.000000 -41.06667 -12.06667 0.000000 -77.66666 0.000000 0.000000 21.00000 -27.73333 -48.00000 0.000000 0.000000 1.000000 41.06667 12.06667 0.000000 77.66666 0.000000 0.000000 -21.00000 27.73333 -48.00000 6.466667 0.000000 0.000000 16.46667 0.000000 0.000000 -2.466667 0.000000 0.000000 -15.00000 0.000000 0.000000 30.00000 0.000000 0.000000 -16.00000 0.000000 0.000000 
0.000000 39.00000 0.000000 1.000000 0.000000 0.000000 1.000000 0.000000 0.000000 1.000000 0.000000 0.000000 1.000000 0.000000 0.000000 1.000000 0.000000 0.000000 0.000000 0.000000 1.000000 -35.93333 -19.93333 0.000000 -70.33334 0.000000 0.000000 24.00000 -24.26667 -42.00000 0.000000 0.000000 1.000000 35.93333 19.93333 0.000000 70.33334 0.000000 0.000000 -24.00000 24.26667 -42.00000 9.533334 0.000000 0.000000 14.53333 0.000000 0.000000 -0.5333334 0.000000 0.000000 -15.00000 0.000000 0.000000 30.00000 0.000000 0.000000 -16.00000 0.000000 0.000000 
0.000000 39.00000 0.000000 1.000000 0.000000 0.000000 1.000000 0.000000 0.000000 1.000000 0.000000 0.000000 1.000000 0.000000 0.000000 1.000000 0.000000 0.000000 0.000000 0.000000 1.000000 -30.80000 -27.80000 0.000000 -63.00000 0.000000 0.000000 27.00000 -20.80000 -36.00000 0.000000 0.000000 1.000000 30.80000 27.80000 0.000000 63.00000 0.000000 0.000000 -27.00000 20.80000 -36.00000 12.60000 0.000000 0.000000 12.60000 0.000000 0.000000 1.400000 0.000000 0.000000 -15.00000 0.000000 0.000000 30.00000 0.000000 0.000000 -16.00000 0.000000 0.000000 
0.000000 39.00000 0.000000 1.000000 0.000000 0.000000 1.000000 0.000000 0.000000 1.000000 0.000000 0.000000 1.000000 0.000000 0.000000 1.000000 0.000000 0.000000 0.000000 0.000000 1.000000 -25.66667 -35.66667 0.000000 -55.66667 0.000000 0.000000 30.00000 -17.33333 -30.00000 0.000000 0.000000 1.000000 25.66667 35.66667 0.000000 55.66667 0.000000 0.000000 -30.00000 17.33333 -30.00000 15.66667 0.000000 0.000000 10.66667 0.000000 0.000000 3.333333 0.000000 0.000000 -15.00000 0.000000 0.000000 30.00000 0.000000 0.000000 -16.00000 0.000000 0.000000 
0.000000 39.00000 0.000000 1.000000 0.000000 0.000000 1.000000 0.000000 0.000000 1.000000 0.000000 0.000000 1.000000 0.000000 0.000000 1.000000 0.000000 0.000000 0.000000 0.000000 1.000000 -20.53333 -43.53333 0.000000 -48.33333 0.000000 0.000000 33.00000 -13.86667 -24.00000 0.000000 0.000000 1.000000 20.53333 43.53333 0.000000 48.33333 0.000000 0.000000 -33.00000 13.86667 -24.00000 18.73333 0.000000 0.000000 8.733334 0.000000 0.000000 5.266667 0.000000 0.000000 -15.00000 0.000000 0.000000 30.00000 0.000000 0.000000 -16.00000 0.000000 0.000000 
0.000000 39.00000 0.000000 1.000000 0.000000 0.000000 1.000000 0.000000 0.000000 1.000000 0.000000 0.000000 1.000000 0.000000 0.000000 1.000000 0.000000 0.000000 0.000000 0.000000 1.000000 -15.40000 -51.40000 0.000000 -41.00000 0.000000 0.000000 36.00000 -10.40000 -18.00000 0.000000 0.000000 1.000000 15.40000 51.40000 0.000000 41.00000 0.000000 0.000000 -36.00000 10.40000 -18.00000 21.80000 0.000000 0.000000 6.800000 0.000000 0.000000 7.200000 0.000000 0.000000 -15.00000 0.000000 0.000000 30.00000 0.000000 0.000000 -16.00000 0.000000 0.000000 
0.000000 39.00000 0.000000 1.000000 0.000000 0.000000 1.000000 0.000000 0.000000 1.000000 0.000000 0.000000 1.000000 0.000000 0.000000 1.000000 0.000000 0.000000 0.000000 0.000000 1.000000 -10.26667 -59.26667 0.000000 -33.66667 0.000000 0.000000 39.00000 -6.933333 -12.00000 0.000000 0.000000 1.000000 10.26667 59.26667 0.000000 33.66667 0.000000 0.000000 -39.00000 6.933333 -12.00000 24.86667 0.000000 0.000000 4.866667 0.000000 0.000000 9.133333 0.000000 0.000000 -15.00000 0.000000 0.000000 30.00000 0.000000 0.000000 -16.00000 0.000000 0.000000 
0.000000 39.00000 0.000000 1.000000 0.000000 0.000000 1.000000 0.000000 0.000000 1.000000 0.000000 0.000000 1.000000 0.000000 0.000000 1.000000 0.000000 0.000000 0.000000 0.000000 1.000000 -5.133333 -67.13333 0.000000 -26.33333 0.000000 0.000000 42.00000 -3.466667 -6.000000 0.000000 0.000000 1.000000 5.133333 67.13333 0.000000 26.33333 0.000000 0.000000 -42.00000 3.466667 -6.000000 27.93333 0.000000 0.000000 2.933333 0.000000 0.000000 11.06667 0.000000 0.000000 -15.00000 0.000000 0.000000 30.00000 0.000000 0.000000 -16.00000 0.000000 0.000000 
0.000000 39.00000 0.000000 1.000000 0.000000 0.000000 1.000000 0.000000 0.000000 1.000000 0.000000 0.000000 1.000000 0.000000 0.000000 1.000000 0.000000 0.000000 0.000000 0.000000 1.000000 0.000000 -75.00000 0.000000 -19.00000 0.000000 0.000000 45.00000 0.000000 0.000000 0.000000 0.000000 1.000000 0.000000 75.00000 0.000000 19.00000 0.000000 0.000000 -45.00000 0.000000 0.000000 31.00000 0.000000 0.000000 1.000000 0.000000 0.000000 13.00000 0.000000 0.000000 -15.00000 0.000000 0.000000 30.00000 0.000000 0.000000 -16.00000 0.000000 0.000000 
0.000000 39.00000 0.000000 1.000000 0.000000 0.000000 1.000000 0.000000 0.000000 1.000000 0.000000 0.000000 1.000000 0.000000 0.000000 1.000000 0.000000 0.000000 0.000000 0.000000 1.000000 -5.133333 -67.13333 0.000000 -26.33333 0.000000 0.000000 42.00000 -3.466667 -6.000000 0.000000 0.000000 1.000000 5.133333 67.13333 0.000000 26.33333 0.000000 0.000000 -42.00000 3.466667 -6.000000 27.93333 0.000000 0.000000 2.933333 0.000000 0.000000 11.06667 0.000000 0.000000 -15.00000 0.000000 0.000000 30.00000 0.000000 0.000000 -16.00000 0.000000 0.000000 
